<?xml version="1.0" encoding="utf-8"?>
<svg viewBox="155.948 58.76 200.599 371.52" xmlns="http://www.w3.org/2000/svg">
  <path d="M 351.267 375.56 C 352.547 380.68 353.747 387.48 354.867 395.96 C 355.987 404.44 356.547 411.4 356.547 416.84 C 325.507 417.16 296.867 418.28 270.627 420.2 C 244.387 422.12 214.307 425.48 180.387 430.28 C 171.747 370.44 165.267 307.96 160.947 242.84 C 156.627 177.72 155.107 118.44 156.387 65 C 164.067 62.76 171.347 61.16 178.227 60.2 C 185.107 59.24 192.227 58.76 199.587 58.76 C 201.827 58.76 204.227 58.84 206.787 59 C 209.347 59.16 212.067 59.4 214.947 59.72 C 213.027 77.32 211.667 97.08 210.867 119 C 210.067 140.92 209.667 167.72 209.667 199.4 C 210.307 241.96 211.667 277.4 213.747 305.72 C 215.827 334.04 218.787 361.32 222.627 387.56 C 243.747 383.72 265.507 380.76 287.907 378.68 C 310.307 376.6 331.427 375.56 351.267 375.56 Z" style="white-space: pre; fill: rgb(255, 247, 72);"/>
</svg>