<?xml version="1.0" encoding="utf-8"?>
<svg viewBox="9.586 149.274 467.133 198.713" xmlns="http://www.w3.org/2000/svg" xmlns:bx="https://boxy-svg.com">
  <rect x="-2395.536" y="-1312.549" width="4894.119" height="3005.972" style="pointer-events: none; fill: rgb(33, 37, 41); visibility: hidden;" transform="matrix(1, 0, 0, 1, 478.25174, 112.252655)"/>
  <g style="visibility: hidden;" transform="matrix(2.218274, 1.556671, -2.244563, 3.198526, -83.404976, -828.355469)">
    <title>white</title>
    <path d="M 329.439 176.179 C 329.439 176.179 318.602 199.968 310.564 207.2 C 297.643 218.826 286.285 216.182 283.046 214.869 C 279.253 213.331 272.052 206.52 272.052 206.52 L 273.655 205.681 C 273.655 205.681 277.744 208.273 281.005 209.136 C 287.129 210.757 292.66 210.337 297.693 208.096 C 302.728 205.854 307.083 202.004 310.6 197.179 C 314.743 191.508 324.674 177.944 324.628 176.812 C 324.368 176.804 315.819 176.616 304.733 177.103 C 296.508 177.464 290.64 177.725 286.346 178.369 C 283.61 178.933 279.318 180.167 277.092 181.743 C 273.277 184.387 270.353 188.357 269.384 192.89 C 269.358 193.012 269.322 193.174 269.283 193.372 C 269.393 193.391 269.498 193.415 269.595 193.446 C 270.033 193.582 270.456 193.801 270.781 194.154 C 270.993 194.293 271.165 194.465 271.287 194.64 C 271.425 194.837 271.505 195.081 271.528 195.285 C 271.54 195.389 271.515 195.512 271.49 195.617 C 271.579 195.923 271.652 196.249 271.699 196.562 C 271.722 196.639 271.739 196.71 271.745 196.768 C 271.754 196.851 271.754 196.925 271.747 196.995 C 271.773 197.379 271.746 197.72 271.644 197.952 C 271.403 198.499 270.664 198.834 270.083 198.99 C 269.548 199.134 268.886 199.137 268.325 198.94 C 267.631 198.698 266.717 198.064 266.355 197.391 C 266.223 197.146 266.152 196.813 266.12 196.456 C 266.009 196.242 265.923 195.993 265.89 195.774 C 265.846 195.479 265.855 195.159 265.979 194.889 C 266.046 194.742 266.144 194.596 266.269 194.461 C 266.271 194.452 266.274 194.443 266.276 194.434 C 266.35 194.172 266.428 194.134 266.625 193.985 C 266.887 193.788 267.364 193.49 267.837 193.396 C 268.055 193.353 268.315 193.326 268.582 193.322 C 268.971 190.986 269.852 188.708 271.144 186.351 C 274.535 180.33 281.738 178.044 286.875 177.723 C 290.05 177.081 329.886 175.377 329.886 175.377 Z M 382.351 161.985 C 382.525 161.846 382.716 161.789 382.914 161.751 C 383.106 161.715 383.313 161.696 383.518 161.755 C 383.773 161.828 384.171 162.064 384.3 162.246 C 384.413 162.404 384.411 162.539 384.338 162.763 C 384.28 162.94 384.114 163.213 383.924 163.485 C 384.016 163.439 384.111 163.402 384.216 163.377 C 384.442 163.323 384.725 163.291 384.961 163.351 C 385.228 163.418 385.591 163.64 385.717 163.815 C 385.829 163.971 385.859 164.123 385.754 164.332 C 385.742 164.355 385.728 164.379 385.711 164.404 C 385.706 164.468 385.686 164.539 385.648 164.622 C 385.473 165.004 384.518 165.939 384.133 166.231 C 383.993 166.337 383.896 166.395 383.789 166.436 C 383.683 166.577 383.574 166.704 383.452 166.801 C 383.175 167.02 382.898 167.145 382.571 167.229 C 382.241 167.314 381.789 167.375 381.477 167.306 C 381.175 167.239 380.847 167.017 380.721 166.841 C 380.661 166.757 380.642 166.656 380.644 166.558 C 380.627 166.555 380.61 166.551 380.594 166.547 C 380.327 166.479 379.964 166.258 379.838 166.082 C 379.727 165.926 379.752 165.767 379.801 165.565 C 379.865 165.302 380.232 164.838 380.307 164.625 C 380.352 164.498 380.264 164.486 380.343 164.35 C 380.508 164.068 381.361 163.356 381.709 162.932 C 381.995 162.584 382.109 162.181 382.351 161.985 Z" style="fill: rgb(255, 255, 255); stroke: rgb(255, 255, 255); stroke-width: 2.72007px;"/>
    <path d="M 331.668 177.315 C 330.885 179.001 320.576 201.415 312.236 209.058 C 305.373 215.115 298.632 217.702 293.495 218.366 C 288.16 219.056 283.869 217.89 282.107 217.186 C 277.938 215.472 272.804 212.059 269.467 207.906 L 272.23 206.44 C 272.304 206.424 272.375 206.407 272.443 206.389 C 272.828 206.286 273.151 206.067 273.378 205.881 C 273.432 205.837 273.482 205.795 273.527 205.752 L 275.903 204.492 C 277.289 205.382 279.14 206.147 281.645 206.719 C 287.354 208.302 292.057 207.949 296.676 205.812 C 301.392 203.776 305.245 200.331 308.58 195.706 C 312.724 190.034 317.842 183.3 320.666 179.269 C 317.12 179.26 315.846 179.115 304.843 179.601 C 296.618 179.962 290.943 180.207 286.784 180.831 C 284.144 181.376 280.386 182.389 278.537 183.783 C 275.016 186.141 272.582 189.36 271.829 193.413 C 271.749 193.784 271.609 194.394 271.532 195.172 L 270.429 194.811 C 268.542 194.194 267.045 194.358 265.94 195.303 C 266.223 191.718 267.318 188.205 268.966 185.124 C 273.068 178.525 281.145 175.654 286.582 175.238 C 291.093 174.549 329.779 172.879 329.779 172.879 L 334.248 172.686 Z M 283.985 212.552 C 285.462 213.161 288.469 213.974 292.854 213.407 C 297.436 212.815 302.834 210.911 308.892 205.342 C 313.464 201.311 319.013 191.498 322.788 184.145 C 319.453 189.154 315.023 195.363 312.62 198.652 C 308.921 203.677 304.064 207.932 298.71 210.38 C 293.964 212.424 288.525 213.056 282.878 212.087 C 283.25 212.251 283.619 212.406 283.985 212.552 Z" style="fill: rgb(255, 255, 255); stroke: rgb(255, 255, 255); stroke-width: 2.72007px;"/>
    <path d="M 382.159 165.932 C 382.283 165.962 382.497 166.359 383.037 166.553 C 383.898 167.017 385.388 164.801 386.376 164.523 C 386.389 170.792 374.95 176.069 368.304 176.543 C 364.935 177.209 325.107 178.902 325.107 178.902 L 320.64 179.092 L 322.816 175.187 L 323.264 174.384 C 323.264 174.384 335.855 151.948 344.039 144.3 C 351.107 137.86 362.045 132.21 371.419 132.888 C 376.243 133.491 380.21 135.925 382.73 138.795 C 385.263 141.679 386.961 145.333 388.01 148.133 C 388.703 150.252 389.02 152.449 389.019 154.643 L 386.651 154.296 L 385.595 154.142 L 383.261 153.8 C 383.179 153.328 383.058 152.837 382.886 152.334 C 381.881 149.397 379.82 146.564 373.241 145.062 C 367.532 143.479 362.829 143.832 358.21 145.969 C 353.494 148.005 349.641 151.45 346.306 156.075 C 342.162 161.747 333.934 172.169 334.22 172.512 C 337.766 172.521 339.04 172.667 350.043 172.18 C 358.268 171.819 363.943 171.574 368.102 170.95 C 370.742 170.405 374.5 169.392 376.349 167.998 C 378.033 166.87 379.469 165.545 380.591 164.026 L 381.087 164.719 C 381.431 165.2 381.789 165.604 382.159 165.932 Z" style="fill: rgb(255, 255, 255); stroke: rgb(255, 255, 255); stroke-width: 2.72007px;"/>
    <path d="M 36.087 10.54 Q 37.549 8.983 39.011 10.54 L 50.144 22.393 Q 51.606 23.95 48.682 23.95 L 26.416 23.95 Q 23.492 23.95 24.954 22.393 Z" style="fill: rgb(255, 255, 255); stroke: rgb(255, 255, 255); stroke-width: 2.7646px;" transform="matrix(0.815344, -0.578977, 0.578977, 0.815344, 230.102844, 210.227722)" bx:shape="triangle 23.492 8.983 28.114 14.967 0.5 0.104 1@629f5989"/>
    <path d="M 32.969 10.54 Q 34.305 8.983 35.64 10.54 L 45.811 22.393 Q 47.147 23.95 44.476 23.95 L 24.133 23.95 Q 21.462 23.95 22.798 22.393 Z" style="fill: rgb(255, 255, 255); stroke: rgb(255, 255, 255); stroke-width: 2.72303px;" transform="matrix(-0.994284, -0.106769, 0.106769, -0.994284, 417.243988, 178.613098)" bx:shape="triangle 21.462 8.983 25.685 14.967 0.5 0.104 1@e6fa8952"/>
    <path d="M 35.387 12.291 Q 38.938 8.78 42.322 12.291 L 49.654 19.898 Q 53.038 23.409 46.103 23.409 L 31.079 23.409 Q 24.144 23.409 27.694 19.898 Z" style="fill: rgb(255, 255, 255); stroke: rgb(255, 255, 255); stroke-width: 2.75763px;" transform="matrix(0.883385, -0.468648, 0.468648, 0.883385, 343.112456, 173.640924)" bx:shape="triangle 24.144 8.78 28.894 14.629 0.512 0.24 1@7d6e3869">
      <title>white triangle</title>
    </path>
    <path d="M 35.386 12.291 Q 38.937 8.78 42.321 12.291 L 49.653 19.898 Q 53.037 23.409 46.102 23.409 L 31.078 23.409 Q 24.143 23.409 27.693 19.898 Z" style="fill: rgb(255, 255, 255); stroke: rgb(255, 255, 255); stroke-width: 2.72542px;" transform="matrix(-0.989457, -0.144824, 0.144824, -0.989457, 420.951433, 192.918483)" bx:shape="triangle 24.143 8.78 28.894 14.629 0.512 0.24 1@afafd685">
      <title>white triangle</title>
    </path>
    <path style="fill: rgb(255, 255, 255); stroke: rgb(255, 255, 255); stroke-width: 2.72007px;" d="M 271.38 210.251 L 278.107 205.505 L 278.67 205.703 L 272.603 211.406 C 272.603 211.406 271.46 210.34 271.38 210.251 Z" transform="matrix(1, 0, 0, 1, 0.000076, -0.000048)"/>
    <path style="fill: rgb(255, 255, 255); stroke: rgb(255, 255, 255); stroke-width: 2.72007px;" d="M 382.593 149.493 L 387.972 152.595 C 387.972 152.595 388.782 151.236 388.689 151.161 C 388.656 151.133 382.859 149.027 382.859 149.027 L 382.593 149.493 Z" transform="matrix(0.847499, -0.368123, 0.765354, 0.8475, -56.612794, 164.963372)"/>
    <path style="fill: rgb(255, 255, 255); stroke: rgb(255, 255, 255); stroke-width: 2.72007px;" d="M 336.844 173.294 L 329.079 177.184 L 331.043 177.937 L 338.357 173.929 L 336.844 173.294 Z" transform="matrix(0.847499, -0.368123, 0.765354, 0.8475, -83.515891, 149.630652)"/>
  </g>
  <g style="" transform="matrix(2.218274, 1.556671, -2.244563, 3.198526, -83.386002, -826.582031)">
    <path d="M 334.466 185.062 L 326.833 188.611 C 321.182 190.786 311.399 194.358 303.31 197.349 C 296.75 199.807 290.742 201.092 285.196 200.88 C 279.645 200.789 275.176 199.28 271.814 195.71 C 271.07 194.926 270.502 194.159 270.458 194.145 L 260.955 195.427 C 261.116 200.334 261.856 201.322 263.849 204.386 C 264.708 205.664 267.255 208.328 272.194 209.888 C 276.949 211.391 284.609 211.959 295.244 209.735 C 308.401 206.801 335.404 192.561 337.441 191.493 L 343.387 188.732 L 339.569 187.109 C 339.569 187.109 337.511 186.348 334.466 185.062 Z" style="fill: rgb(255, 247, 72);" transform="matrix(0.818559, -0.398379, 0.828259, 0.818559, -103.153492, 154.995997)"/>
    <path d="M 276.861 179.678 L 277.37 179.418 C 277.638 179.189 277.329 179.374 276.861 179.678 Z" style="fill: rgb(255, 247, 72);" transform="matrix(0.818559, -0.398379, 0.828259, 0.818559, -103.153492, 154.995997)"/>
    <path d="M 275.127 180.832 C 274.894 181.001 276.092 180.179 276.861 179.678 L 276.477 179.875 C 276.019 180.177 275.568 180.496 275.127 180.832 Z" style="fill: rgb(255, 247, 72);" transform="matrix(0.818559, -0.398379, 0.828259, 0.818559, -103.153492, 154.995997)"/>
    <path d="M 302.256 171.832 C 297.461 170.006 288.472 169.139 279.648 172.906 C 275.748 174.772 273.421 176.185 270.219 179.007 C 271.907 178.754 273.761 179.621 274.794 180.735 L 276.477 179.875 C 280.138 177.458 284.296 176.09 288.593 175.621 C 291.261 175.217 295.177 175.885 297.789 176.49 C 301.71 177.636 306.559 179.697 313.59 182.678 C 320.939 185.791 321.133 185.631 323.112 186.625 L 330.151 183.538 C 320.269 179.372 305.302 172.713 302.256 171.832 Z" style="fill: rgb(223, 186, 52);" transform="matrix(0.818559, -0.398379, 0.828259, 0.818559, -103.153492, 154.995997)"/>
    <path d="M 378.638 167.381 C 378.757 168.2 381.184 169.43 383.11 168.787 C 378.975 175.262 373.693 176.131 368.304 176.543 C 365.867 177.025 348.269 177.883 336.552 178.41 L 339.431 172.553 C 341.856 172.578 341.521 172.557 350.043 172.18 C 358.268 171.819 363.903 171.18 368.102 170.95 C 375.875 170.525 378.462 167.608 378.638 167.381 Z" style="stroke-width: 5px; fill: rgb(223, 186, 52);"/>
    <path d="M 325.107 178.902 L 320.64 179.092 L 322.816 175.187 L 323.264 174.384 C 323.264 174.384 335.855 151.948 344.039 144.3 C 351.107 137.86 362.045 132.21 371.419 132.888 C 376.243 133.491 380.21 135.925 382.73 138.795 C 385.263 141.679 387.104 146.306 388.153 149.106 C 388.846 151.225 381.807 149.982 381.807 149.982 C 381.807 149.982 379.82 146.564 373.241 145.062 C 367.532 143.479 362.829 143.832 358.21 145.969 C 353.494 148.005 349.641 151.45 346.306 156.075 C 342.162 161.747 338.01 166.722 334.406 172.415 C 333.141 174.413 331.009 178.642 331.009 178.642 L 325.107 178.902 Z" style="stroke-width: 5px; fill: rgb(255, 247, 72);"/>
    <path d="M 35.035 11.935 C 36.283 10.719 37.629 10.035 38.896 10.035 C 40.166 10.035 41.488 10.725 42.682 11.944 L 50.014 19.551 C 50.605 20.169 51.024 20.778 51.179 21.288 C 51.349 21.844 51.202 22.499 50.81 22.887 C 50.12 23.568 48.464 23.904 46.103 23.909 L 31.079 23.909 C 28.717 23.904 27.068 23.566 26.405 22.878 C 26.026 22.485 25.907 21.822 26.103 21.268 C 26.281 20.761 26.725 20.158 27.342 19.542 Z M 28.046 20.254 C 27.48 20.808 27.177 21.229 27.046 21.6 C 26.932 21.924 26.94 21.992 27.125 22.184 C 27.591 22.667 28.817 22.914 31.079 22.909 L 46.103 22.909 C 48.365 22.914 49.612 22.664 50.107 22.176 C 50.306 21.978 50.321 21.901 50.223 21.58 C 50.111 21.212 49.831 20.797 49.294 20.245 L 41.962 12.638 C 40.9 11.517 39.938 11.035 38.896 11.035 C 37.852 11.035 36.858 11.522 35.739 12.647 Z" style="fill: none;" transform="matrix(0.883385, -0.468648, 0.468648, 0.883385, 227.281967, 203.787415)"/>
    <path d="M 35.034 11.935 C 36.282 10.719 37.628 10.035 38.895 10.035 C 40.165 10.035 41.487 10.725 42.681 11.944 L 50.013 19.551 C 50.604 20.169 51.023 20.778 51.178 21.288 C 51.348 21.844 51.201 22.499 50.809 22.887 C 50.119 23.568 48.463 23.904 46.102 23.909 L 31.078 23.909 C 28.716 23.904 27.067 23.566 26.404 22.878 C 26.025 22.485 25.906 21.822 26.102 21.268 C 26.28 20.761 26.724 20.158 27.341 19.542 Z M 28.045 20.254 C 27.479 20.808 27.176 21.229 27.045 21.6 C 26.931 21.924 26.939 21.992 27.124 22.184 C 27.59 22.667 28.816 22.914 31.078 22.909 L 46.102 22.909 C 48.364 22.914 49.611 22.664 50.106 22.176 C 50.305 21.978 50.32 21.901 50.222 21.58 C 50.11 21.212 49.83 20.797 49.293 20.245 L 41.961 12.638 C 40.899 11.517 39.937 11.035 38.895 11.035 C 37.851 11.035 36.857 11.522 35.738 12.647 Z" style="fill: none;" transform="matrix(-0.989457, -0.144824, 0.144824, -0.989457, 421.181946, 183.009247)"/>
    <path d="M 35.034 11.935 C 36.282 10.719 37.628 10.035 38.895 10.035 C 40.165 10.035 41.487 10.725 42.681 11.944 L 50.013 19.551 C 50.604 20.169 51.023 20.778 51.178 21.288 C 51.348 21.844 51.201 22.499 50.809 22.887 C 50.119 23.568 48.463 23.904 46.102 23.909 L 31.078 23.909 C 28.716 23.904 27.067 23.566 26.404 22.878 C 26.025 22.485 25.906 21.822 26.102 21.268 C 26.28 20.761 26.724 20.158 27.341 19.542 Z M 28.045 20.254 C 27.479 20.808 27.176 21.229 27.045 21.6 C 26.931 21.924 26.939 21.992 27.124 22.184 C 27.59 22.667 28.816 22.914 31.078 22.909 L 46.102 22.909 C 48.364 22.914 49.611 22.664 50.106 22.176 C 50.305 21.978 50.32 21.901 50.222 21.58 C 50.11 21.212 49.83 20.797 49.293 20.245 L 41.961 12.638 C 40.899 11.517 39.937 11.035 38.895 11.035 C 37.851 11.035 36.857 11.522 35.738 12.647 Z" style="fill: none;" transform="matrix(-0.989457, -0.144824, 0.144824, -0.989457, 421.181946, 183.009247)"/>
    <path d="M 35.387 12.291 Q 38.938 8.78 42.322 12.291 L 49.654 19.898 Q 53.038 23.409 46.103 23.409 L 31.079 23.409 Q 24.144 23.409 27.694 19.898 Z" style="fill: rgb(255, 255, 255); visibility: hidden;" transform="matrix(0.883385, -0.468648, 0.468648, 0.883385, 343.112456, 173.640924)" bx:shape="triangle 24.144 8.78 28.894 14.629 0.512 0.24 1@7d6e3869">
      <title>white triangle</title>
    </path>
    <path d="M 35.386 12.291 Q 38.937 8.78 42.321 12.291 L 49.653 19.898 Q 53.037 23.409 46.102 23.409 L 31.078 23.409 Q 24.143 23.409 27.693 19.898 Z" style="fill: rgb(255, 255, 255); visibility: hidden;" transform="matrix(-0.989457, -0.144824, 0.144824, -0.989457, 420.951433, 192.918483)" bx:shape="triangle 24.143 8.78 28.894 14.629 0.512 0.24 1@afafd685">
      <title>white triangle</title>
    </path>
    <path d="M 37.514 10.138 Q 39.034 8.641 40.553 10.138 L 52.126 21.542 Q 53.646 23.039 50.607 23.039 L 27.46 23.039 Q 24.421 23.039 25.941 21.542 Z" style="fill: rgb(94, 19, 164); stroke-width: 0.614355px; stroke: rgb(94, 19, 164);" transform="matrix(0.871169, -0.490983, 0.457909, 0.889809, 228.736237, 206.385345)" bx:shape="triangle 24.421 8.641 29.225 14.398 0.5 0.104 1@6fb4d562"/>
    <path d="M 32.969 10.54 Q 34.305 8.983 35.64 10.54 L 45.811 22.393 Q 47.147 23.95 44.476 23.95 L 24.133 23.95 Q 21.462 23.95 22.798 22.393 Z" style="fill: rgb(94, 19, 164); stroke-width: 0.605117px; stroke: rgb(94, 19, 164);" transform="matrix(-0.994284, -0.106769, 0.106769, -0.994284, 415.898621, 179.310989)" bx:shape="triangle 21.462 8.983 25.685 14.967 0.5 0.104 1@e6fa8952"/>
  </g>
  <path d="M 247.562 226.627 L 247.562 241.41 L 192.701 241.41 L 192.701 226.627 Z M 193.701 240.41 L 246.562 240.41 L 246.562 227.627 L 193.701 227.627 Z" style="fill: none;"/>
</svg>