<?xml version="1.0" encoding="utf-8"?>
<svg viewBox="588.22 81.919 181.5 369.58" xmlns="http://www.w3.org/2000/svg">
  <path d="M 635.12 302.359 C 638.873 305.479 642.703 307.822 646.61 309.389 C 650.517 310.949 654.66 311.729 659.04 311.729 C 675.3 311.729 689.37 299.222 701.25 274.209 C 713.13 249.196 719.07 218.086 719.07 180.879 C 719.07 163.372 716.257 149.696 710.63 139.849 C 705.003 129.996 697.187 125.069 687.18 125.069 C 675.613 125.069 665.453 130.229 656.7 140.549 C 647.94 150.869 640.747 166.189 635.12 186.509 C 634.807 200.582 634.573 211.606 634.42 219.579 C 634.26 227.552 634.18 235.132 634.18 242.319 C 634.18 250.452 634.26 259.052 634.42 268.119 C 634.573 277.186 634.807 288.599 635.12 302.359 Z M 637.47 340.339 C 638.403 354.726 639.573 369.346 640.98 384.199 C 642.387 399.046 644.967 419.602 648.72 445.869 C 643.407 447.429 636.763 448.759 628.79 449.859 C 620.817 450.952 613.39 451.499 606.51 451.499 C 601.197 413.979 596.82 370.282 593.38 320.409 C 589.94 270.542 588.22 224.816 588.22 183.229 C 588.22 164.782 588.533 148.209 589.16 133.509 C 589.787 118.816 590.88 104.279 592.44 89.899 C 597.133 87.399 602.84 85.446 609.56 84.039 C 616.28 82.626 623.237 81.919 630.43 81.919 C 632.93 81.919 635.277 82.076 637.47 82.389 C 639.657 82.702 643.25 83.329 648.25 84.269 C 646.69 91.149 645.207 98.419 643.8 106.079 C 642.393 113.739 641.063 121.632 639.81 129.759 C 648.563 114.752 658.727 103.419 670.3 95.759 C 681.867 88.099 694.373 84.269 707.82 84.269 C 726.893 84.269 741.977 92.632 753.07 109.359 C 764.17 126.086 769.72 148.519 769.72 176.659 C 769.72 224.186 759.09 263.662 737.83 295.089 C 716.57 326.509 690.307 342.219 659.04 342.219 C 655.913 342.219 652.63 342.062 649.19 341.749 C 645.75 341.436 641.843 340.966 637.47 340.339 Z" style="white-space: pre; fill: rgb(255, 247, 72);"/>
</svg>