<?xml version="1.0" encoding="utf-8"?>
<svg viewBox="-102 -285 860 860" xmlns="http://www.w3.org/2000/svg" xmlns:bx="https://boxy-svg.com">
  <defs>
    <filter id="grayscale-filter-0" x="-500%" y="-500%" width="1000%" height="1000%" bx:preset="grayscale 1 1">
      <feColorMatrix type="matrix" values="0.213 0.715 0.072 0 0 0.213 0.715 0.072 0 0 0.213 0.715 0.072 0 0 0 0 0 1 0"/>
    </filter>
  </defs>
  <rect x="-102" y="-285" width="860" height="860" style="fill: rgb(216, 216, 216);" bx:origin="0.5 0.504651"/>
  <g style="filter: url(#grayscale-filter-0);" transform="matrix(3.377579, 2.115401, -3.050197, 4.870126, -248.587418, -1422.360474)">
    <path d="M 329.439 176.179 C 329.439 176.179 318.602 199.968 310.564 207.2 C 297.643 218.826 286.285 216.182 283.046 214.869 C 279.253 213.331 272.052 206.52 272.052 206.52 L 273.655 205.681 C 273.655 205.681 277.744 208.273 281.005 209.136 C 287.129 210.757 292.66 210.337 297.693 208.096 C 302.728 205.854 307.083 202.004 310.6 197.179 C 314.743 191.508 324.674 177.944 324.628 176.812 C 324.368 176.804 315.819 176.616 304.733 177.103 C 296.508 177.464 290.64 177.725 286.346 178.369 C 283.61 178.933 279.318 180.167 277.092 181.743 C 273.277 184.387 270.353 188.357 269.384 192.89 C 269.32 193.186 269.201 193.721 269.111 194.425 C 268.959 194.416 268.804 194.419 268.653 194.438 C 268.58 194.447 268.513 194.423 268.434 194.44 C 268.701 191.707 269.647 189.082 271.144 186.351 C 274.535 180.33 281.738 178.044 286.875 177.723 C 290.05 177.081 329.886 175.377 329.886 175.377 L 329.439 176.179 Z" style="stroke-width: 5px; fill: rgb(81, 186, 177);"/>
    <path d="M 331.668 177.315 C 330.885 179.001 320.576 201.415 312.236 209.058 C 305.373 215.115 298.632 217.702 293.495 218.366 C 288.16 219.056 283.869 217.89 282.107 217.186 C 277.938 215.472 272.804 212.059 269.467 207.906 L 272.23 206.44 C 272.304 206.424 272.375 206.407 272.443 206.389 C 272.828 206.286 273.151 206.067 273.378 205.881 C 273.432 205.837 273.482 205.795 273.527 205.752 L 275.903 204.492 C 277.289 205.382 279.14 206.147 281.645 206.719 C 287.354 208.302 292.057 207.949 296.676 205.812 C 301.392 203.776 305.245 200.331 308.58 195.706 C 312.724 190.034 317.842 183.3 320.666 179.269 C 317.12 179.26 315.846 179.115 304.843 179.601 C 296.618 179.962 290.943 180.207 286.784 180.831 C 284.144 181.376 280.386 182.389 278.537 183.783 C 275.016 186.141 272.582 189.36 271.829 193.413 C 271.749 193.784 271.609 194.394 271.532 195.172 L 270.429 194.811 C 268.542 194.194 267.045 194.358 265.94 195.303 C 266.223 191.718 267.318 188.205 268.966 185.124 C 273.068 178.525 281.145 175.654 286.582 175.238 C 291.093 174.549 329.779 172.879 329.779 172.879 L 334.248 172.686 Z M 283.985 212.552 C 285.462 213.161 288.469 213.974 292.854 213.407 C 297.436 212.815 302.834 210.911 308.892 205.342 C 313.464 201.311 319.013 191.498 322.788 184.145 C 319.453 189.154 315.023 195.363 312.62 198.652 C 308.921 203.677 304.064 207.932 298.71 210.38 C 293.964 212.424 288.525 213.056 282.878 212.087 C 283.25 212.251 283.619 212.406 283.985 212.552 Z" style="fill: rgb(81, 186, 177);"/>
    <path d="M 382.159 165.932 C 382.283 165.962 382.497 166.359 383.037 166.553 C 383.898 167.017 384.822 167.11 385.81 166.832 C 381.675 173.307 373.693 176.131 368.304 176.543 C 364.935 177.209 325.107 178.902 325.107 178.902 L 320.64 179.092 L 322.816 175.187 L 323.264 174.384 C 323.264 174.384 335.855 151.948 344.039 144.3 C 351.107 137.86 362.045 132.21 371.419 132.888 C 376.243 133.491 380.21 135.925 382.73 138.795 C 385.263 141.679 386.961 145.333 388.01 148.133 C 388.703 150.252 389.02 152.449 389.019 154.643 L 386.651 154.296 L 385.595 154.142 L 383.261 153.8 C 383.179 153.328 383.058 152.837 382.886 152.334 C 381.881 149.397 379.82 146.564 373.241 145.062 C 367.532 143.479 362.829 143.832 358.21 145.969 C 353.494 148.005 349.641 151.45 346.306 156.075 C 342.162 161.747 333.934 172.169 334.22 172.512 C 337.766 172.521 339.04 172.667 350.043 172.18 C 358.268 171.819 363.943 171.574 368.102 170.95 C 370.742 170.405 374.5 169.392 376.349 167.998 C 378.033 166.87 379.469 165.545 380.591 164.026 L 381.087 164.719 C 381.431 165.2 381.789 165.604 382.159 165.932 Z" style="stroke-width: 5px; fill: rgb(81, 186, 177);"/>
    <path d="M 35.035 11.935 C 36.283 10.719 37.629 10.035 38.896 10.035 C 40.166 10.035 41.488 10.725 42.682 11.944 L 50.014 19.551 C 50.605 20.169 51.024 20.778 51.179 21.288 C 51.349 21.844 51.202 22.499 50.81 22.887 C 50.12 23.568 48.464 23.904 46.103 23.909 L 31.079 23.909 C 28.717 23.904 27.068 23.566 26.405 22.878 C 26.026 22.485 25.907 21.822 26.103 21.268 C 26.281 20.761 26.725 20.158 27.342 19.542 Z M 28.046 20.254 C 27.48 20.808 27.177 21.229 27.046 21.6 C 26.932 21.924 26.94 21.992 27.125 22.184 C 27.591 22.667 28.817 22.914 31.079 22.909 L 46.103 22.909 C 48.365 22.914 49.612 22.664 50.107 22.176 C 50.306 21.978 50.321 21.901 50.223 21.58 C 50.111 21.212 49.831 20.797 49.294 20.245 L 41.962 12.638 C 40.9 11.517 39.938 11.035 38.896 11.035 C 37.852 11.035 36.858 11.522 35.739 12.647 Z" style="fill: none;" transform="matrix(0.883385, -0.468648, 0.468648, 0.883385, 227.281967, 203.787415)"/>
    <path d="M 36.087 10.54 Q 37.549 8.983 39.011 10.54 L 50.144 22.393 Q 51.606 23.95 48.682 23.95 L 26.416 23.95 Q 23.492 23.95 24.954 22.393 Z" style="fill: rgb(211, 55, 133);" transform="matrix(0.815344, -0.578977, 0.578977, 0.815344, 230.102844, 210.227722)" bx:shape="triangle 23.492 8.983 28.114 14.967 0.5 0.104 1@629f5989"/>
    <path d="M 35.034 11.935 C 36.282 10.719 37.628 10.035 38.895 10.035 C 40.165 10.035 41.487 10.725 42.681 11.944 L 50.013 19.551 C 50.604 20.169 51.023 20.778 51.178 21.288 C 51.348 21.844 51.201 22.499 50.809 22.887 C 50.119 23.568 48.463 23.904 46.102 23.909 L 31.078 23.909 C 28.716 23.904 27.067 23.566 26.404 22.878 C 26.025 22.485 25.906 21.822 26.102 21.268 C 26.28 20.761 26.724 20.158 27.341 19.542 Z M 28.045 20.254 C 27.479 20.808 27.176 21.229 27.045 21.6 C 26.931 21.924 26.939 21.992 27.124 22.184 C 27.59 22.667 28.816 22.914 31.078 22.909 L 46.102 22.909 C 48.364 22.914 49.611 22.664 50.106 22.176 C 50.305 21.978 50.32 21.901 50.222 21.58 C 50.11 21.212 49.83 20.797 49.293 20.245 L 41.961 12.638 C 40.899 11.517 39.937 11.035 38.895 11.035 C 37.851 11.035 36.857 11.522 35.738 12.647 Z" style="fill: none;" transform="matrix(-0.989457, -0.144824, 0.144824, -0.989457, 421.181946, 183.009247)"/>
    <path d="M 35.034 11.935 C 36.282 10.719 37.628 10.035 38.895 10.035 C 40.165 10.035 41.487 10.725 42.681 11.944 L 50.013 19.551 C 50.604 20.169 51.023 20.778 51.178 21.288 C 51.348 21.844 51.201 22.499 50.809 22.887 C 50.119 23.568 48.463 23.904 46.102 23.909 L 31.078 23.909 C 28.716 23.904 27.067 23.566 26.404 22.878 C 26.025 22.485 25.906 21.822 26.102 21.268 C 26.28 20.761 26.724 20.158 27.341 19.542 Z M 28.045 20.254 C 27.479 20.808 27.176 21.229 27.045 21.6 C 26.931 21.924 26.939 21.992 27.124 22.184 C 27.59 22.667 28.816 22.914 31.078 22.909 L 46.102 22.909 C 48.364 22.914 49.611 22.664 50.106 22.176 C 50.305 21.978 50.32 21.901 50.222 21.58 C 50.11 21.212 49.83 20.797 49.293 20.245 L 41.961 12.638 C 40.899 11.517 39.937 11.035 38.895 11.035 C 37.851 11.035 36.857 11.522 35.738 12.647 Z" style="fill: none;" transform="matrix(-0.989457, -0.144824, 0.144824, -0.989457, 421.181946, 183.009247)"/>
    <path d="M 32.969 10.54 Q 34.305 8.983 35.64 10.54 L 45.811 22.393 Q 47.147 23.95 44.476 23.95 L 24.133 23.95 Q 21.462 23.95 22.798 22.393 Z" style="fill: rgb(211, 55, 133);" transform="matrix(-0.994284, -0.106769, 0.106769, -0.994284, 417.243988, 178.613098)" bx:shape="triangle 21.462 8.983 25.685 14.967 0.5 0.104 1@e6fa8952"/>
    <path d="M 35.387 12.291 Q 38.938 8.78 42.322 12.291 L 49.654 19.898 Q 53.038 23.409 46.103 23.409 L 31.079 23.409 Q 24.144 23.409 27.694 19.898 Z" style="fill: rgb(255, 255, 255); visibility: hidden;" transform="matrix(0.883385, -0.468648, 0.468648, 0.883385, 343.112456, 173.640924)" bx:shape="triangle 24.144 8.78 28.894 14.629 0.512 0.24 1@7d6e3869">
      <title>white triangle</title>
    </path>
    <path d="M 35.386 12.291 Q 38.937 8.78 42.321 12.291 L 49.653 19.898 Q 53.037 23.409 46.102 23.409 L 31.078 23.409 Q 24.143 23.409 27.693 19.898 Z" style="fill: rgb(255, 255, 255); visibility: hidden;" transform="matrix(-0.989457, -0.144824, 0.144824, -0.989457, 420.951433, 192.918483)" bx:shape="triangle 24.143 8.78 28.894 14.629 0.512 0.24 1@afafd685">
      <title>white triangle</title>
    </path>
  </g>
  <g style="pointer-events: none; visibility: hidden; filter: url(#grayscale-filter-0);" transform="matrix(5.060188, 0, 0, 5.060188, -1323.22522, -835.968201)">
    <title>the models</title>
    <path d="M 272.024 198.429 C 271.485 202.35 300.715 212.33 307.649 212.425 C 316.387 212.545 324.526 200.694 326.257 192.805 C 329.985 175.808 312.142 162.941 294.26 178.977 C 289.373 183.359 272.296 196.453 272.024 198.429 Z" style="fill: rgb(50, 169, 237);" transform="matrix(-0.992479, -0.122412, 0.122412, -0.992479, 573.012429, 419.279571)"/>
    <path d="M 326.563 193.533 C 326.096 197.491 355.224 207.564 362.096 207.66 C 370.755 207.781 378.616 195.819 380.195 187.856 C 383.597 170.699 365.7 157.712 348.259 173.898 C 343.493 178.322 326.798 191.538 326.563 193.533 Z" style="fill: rgb(50, 169, 237);" transform="matrix(0.986017, 0.166647, -0.166647, 0.986017, 36.120855, -56.307965)"/>
    <path style="fill: rgb(50, 169, 237);" d="M 332.524 213.15 C 332.524 214.602 324.538 230.715 321.274 237.157 C 315.677 248.206 307.255 255.062 297.536 250.946 C 294.651 249.724 291.781 247.032 290.224 243.322 C 288.87 240.096 288.509 235.801 289.099 232.129 C 289.939 226.898 292.345 221.9 295.399 218.827 C 299.3 214.903 304.522 214.708 309.237 213.799 C 316.932 212.313 332.524 213.15 332.524 213.15 Z" transform="matrix(0.8475, 0.530795, -0.530795, 0.8475, 170.8058, -129.443254)"/>
  </g>
  <path style="fill: rgb(37, 106, 100); pointer-events: none; filter: url(#grayscale-filter-0);" d="M 111.586 408.816 L 138.397 381.543 L 140.64 382.684 L 116.461 415.456 C 116.461 415.456 111.906 409.329 111.586 408.816 Z" transform="matrix(0.8475, 0.530795, -0.530795, 0.8475, 149.141739, -230.038208)"/>
  <path style="fill: rgb(37, 106, 100); pointer-events: none; filter: url(#grayscale-filter-0);" d="M 663.405 344.197 L 684.842 362.023 C 684.842 362.023 688.07 354.211 687.7 353.781 C 687.567 353.623 664.464 341.52 664.464 341.52 L 663.405 344.197 Z" transform="matrix(1, 0, 0, 1, -81.611992, -223.869141)"/>
  <path style="fill: rgb(34, 107, 138); pointer-events: none; filter: url(#grayscale-filter-0);" d="M 436.982 349.385 L 406.036 371.742 L 413.863 376.065 L 443.01 353.036 L 436.982 349.385 Z" transform="matrix(1, 0, 0, 1, -81.611992, -223.869141)"/>
</svg>